PathFileType	4	(X/Y/Z)	C:\Users\Basilio\Documents\Thesis Gigler\squatting_fais\c3dfiles\076\SLS_front_pre3\markers_experimental.trc
DataRate	CameraRate	NumFrames	NumMarkers	Units	OrigDataRate	OrigDataStartFrame	OrigNumFrames
200.000000	200.000000	4	61	mm	200.000000	1089	1453
Frame#	Time	FHD			LBHD			RBHD			C7			T10			CLAV			LSHO			LUUPA			LMUPA			LDUPA			LLEP			LMEP			LRAD			LUL			LRFIN			RSHO			RUPA1			RMUPA			RDUPA			RLEP			RMEP			RRAD			RUL			RUFIN			LASI			RASI			USACR			LSACR			RSACR			LTHI1			LTHI2			LTHI4			LLFC			LMFC			LTIB1			LTIB2			LTIB3			LTIB4			LLMAL			LMMAL			LHEE			LMT1			LMT2			LMT5			RTHI			RTHI2			RTHI3			RTHI4			RLFC			RMFC			RTIB1			RTIB2			RTIB3			RTIB4			RLMAL			RMMAL			RHEE			RMT1			RMT2			RMT5			LTHI3			
		X1	Y1	Z1	X2	Y2	Z2	X3	Y3	Z3	X4	Y4	Z4	X5	Y5	Z5	X6	Y6	Z6	X7	Y7	Z7	X8	Y8	Z8	X9	Y9	Z9	X10	Y10	Z10	X11	Y11	Z11	X12	Y12	Z12	X13	Y13	Z13	X14	Y14	Z14	X15	Y15	Z15	X16	Y16	Z16	X17	Y17	Z17	X18	Y18	Z18	X19	Y19	Z19	X20	Y20	Z20	X21	Y21	Z21	X22	Y22	Z22	X23	Y23	Z23	X24	Y24	Z24	X25	Y25	Z25	X26	Y26	Z26	X27	Y27	Z27	X28	Y28	Z28	X29	Y29	Z29	X30	Y30	Z30	X31	Y31	Z31	X32	Y32	Z32	X33	Y33	Z33	X34	Y34	Z34	X35	Y35	Z35	X36	Y36	Z36	X37	Y37	Z37	X38	Y38	Z38	X39	Y39	Z39	X40	Y40	Z40	X41	Y41	Z41	X42	Y42	Z42	X43	Y43	Z43	X44	Y44	Z44	X45	Y45	Z45	X46	Y46	Z46	X47	Y47	Z47	X48	Y48	Z48	X49	Y49	Z49	X50	Y50	Z50	X51	Y51	Z51	X52	Y52	Z52	X53	Y53	Z53	X54	Y54	Z54	X55	Y55	Z55	X56	Y56	Z56	X57	Y57	Z57	X58	Y58	Z58	X59	Y59	Z59	X60	Y60	Z60	X61	Y61	Z61	

1090	5.445	-255.8781280517579	1575.59619140625	-1008.544067382813	-387.2087707519532	1491.522216796875	-1105.365356445313	-373.5831298828126	1495.890014648438	-953.836853027344	-421.3375854492189	1372.585571289063	-1026.969482421875	-461.8820800781251	1061.203369140625	-1042.0810546875	-290.7050170898438	1296.415405273438	-1032.559326171875	-352.9943542480469	1313.35107421875	-1208.2490234375	-332.2165832519532	1116.3671875	-1279.711791992188	-293.5471801757813	1095.461547851563	-1255.84814453125	-316.9844055175782	1050.3798828125	-1291.739501953125	-319.2571105957032	992.0894165039065	-1297.137451171875	-354.7376708984376	968.7312011718752	-1226.231689453125	-155.8290405273438	814.0491333007815	-1230.323852539063	-174.5492401123047	795.988220214844	-1290.86376953125	-101.0789642333985	744.3289184570314	-1231.136962890625	-343.0738830566407	1295.885009765625	-863.6109619140627	-331.3733520507813	1094.217407226563	-794.2893676757815	-285.1582946777344	1081.580322265625	-803.795349121094	-311.1039428710938	1026.67724609375	-794.7512817382815	-286.8969421386719	971.656188964844	-796.8319091796877	-308.8859558105469	956.5465087890627	-872.8607177734377	-185.572738647461	750.6544189453126	-827.1958618164065	-215.5211181640626	753.1542358398439	-767.7073364257814	-155.1851806640625	677.6976928710939	-802.7467041015627	-307.3796691894532	880.9493408203127	-1141.007568359375	-308.9454956054688	902.495788574219	-926.9553222656252	-475.182830810547	949.3152465820315	-1036.59375	-479.5017395019532	918.536315917969	-1064.003784179688	-486.0433044433595	921.103210449219	-1006.695434570313	-336.2167968750001	717.1494140625001	-1197.385131835938	-277.9476928710938	655.5130615234376	-1192.042846679688	-284.1275634765626	596.4597778320314	-1175.62841796875	-224.058822631836	453.9642333984376	-1140.3642578125	-207.3069000244141	467.0516967773439	-1025.529907226563	-229.2944335937501	320.2062683105469	-1046.6396484375	-262.2805175781251	262.7601013183594	-1107.494506835938	-237.4383239746094	265.3079223632813	-1066.177612304688	-283.9081115722657	207.0116119384766	-1026.615234375	-376.4867858886719	106.4224090576172	-1071.603393554688	-352.7330017089844	120.7538375854492	-989.2119750976565	-440.905487060547	96.3339538574219	-1024.2392578125	-239.0237274169922	50.75130462646486	-1002.682861328125	-233.2679138183594	49.42664337158205	-1041.623413085938	-256.9127197265626	44.00996780395509	-1091.719116210938	-223.5372009277344	717.2645874023439	-859.8336181640627	-158.5094146728516	719.7232666015626	-871.6551513671877	-145.5232696533203	748.7613525390626	-885.4492187500002	-109.128158569336	654.3317871093751	-889.0213012695315	-62.43848419189455	619.3464355468751	-897.9436035156252	-55.65000152587892	630.2459106445314	-1014.304626464844	69.89392852783205	573.5045776367189	-925.0718383789065	96.93766021728518	471.5663146972657	-896.428649902344	124.3812332153321	506.7482910156251	-911.3685302734377	166.7145233154297	489.8311462402345	-947.2676391601565	252.9692535400391	358.2882995605469	-915.5806884765627	241.913314819336	382.0114440917969	-996.9882812500002	240.279037475586	294.8349304199219	-953.716491699219	367.7498779296876	451.4223632812501	-1003.85009765625	367.2933654785157	464.8436584472657	-956.3806152343752	373.9190673828126	435.5603637695314	-902.2380981445315	-232.5694732666016	674.8254394531251	-1179.313842773438	
1091	5.45	-256.0439147949219	1576.650390625	-1008.537170410156	-386.7795410156251	1493.031494140625	-1105.619018554688	-373.5711975097657	1496.77197265625	-953.908630371094	-421.2208862304689	1373.242919921875	-1027.019165039063	-461.160369873047	1062.014770507813	-1042.094848632813	-290.5236816406251	1297.316528320313	-1032.612060546875	-352.8737487792969	1314.226684570313	-1208.475708007813	-333.8157958984376	1116.689819335938	-1279.4111328125	-294.5501098632813	1095.456665039063	-1255.707885742188	-319.4848327636719	1050.492065429688	-1291.202392578125	-322.8400573730469	992.381530761719	-1296.392578125	-356.5784301757813	970.108825683594	-1224.564819335938	-160.9754791259766	812.0301513671877	-1230.362060546875	-180.8543395996094	793.8834228515627	-1290.531982421875	-106.8342056274414	741.7926025390626	-1231.667846679688	-343.1024780273438	1296.92724609375	-863.4942016601565	-332.6613769531251	1094.837768554688	-793.9986572265627	-286.3608398437501	1081.797973632813	-803.7425537109377	-312.9896850585938	1027.239135742188	-794.3811645507815	-289.5151062011719	971.888610839844	-796.581237792969	-311.5995483398438	957.0036621093752	-872.9240722656252	-191.0179443359375	749.4825439453126	-826.4259033203127	-221.1731567382813	752.6768188476564	-766.6771240234376	-162.3655853271485	675.9437255859376	-801.7393798828127	-306.6950988769532	881.744567871094	-1140.97314453125	-308.6752014160157	903.2410278320315	-926.659851074219	-474.4348449707032	950.2739257812502	-1036.507202148438	-480.3575439453126	919.4691162109377	-1063.4580078125	-485.4923706054689	921.7561645507815	-1006.519653320313	-335.5238037109376	718.0451660156251	-1199.50927734375	-278.0671691894532	655.9640502929689	-1192.40576171875	-284.3988037109376	596.9923706054689	-1176.093505859375	-224.5982666015626	454.2486267089845	-1141.196166992188	-207.2681427001954	467.1905517578126	-1026.372802734375	-229.4681549072266	320.2886962890626	-1047.468994140625	-262.7406311035157	263.0221252441407	-1108.10498046875	-237.6680145263672	265.3806762695313	-1066.938110351563	-283.8624572753907	207.1599121093751	-1027.128662109375	-376.3272094726563	106.2877960205078	-1071.639892578125	-352.5906982421876	120.8351669311524	-989.4111938476565	-440.9132690429689	96.35563659667972	-1024.241455078125	-239.0083770751954	50.85145568847658	-1002.692932128906	-233.2486114501954	49.38844299316408	-1041.761108398438	-256.8522949218751	43.90067672729493	-1091.8525390625	-223.2051544189454	717.9957275390626	-859.8391723632815	-158.4631805419922	720.0921020507814	-871.846374511719	-144.9359283447266	749.0854492187501	-885.586853027344	-108.6441879272461	654.7089233398439	-888.9882812500002	-61.86148834228517	619.8145751953126	-897.9636230468752	-54.91311264038087	630.7340698242189	-1014.336975097656	70.47061920166017	573.8134765625001	-925.0317993164065	97.332878112793	471.8909912109376	-896.524597167969	124.7657928466797	506.9706115722657	-911.469909667969	167.2029724121094	490.0117187500001	-947.312194824219	253.1888580322266	358.4646606445313	-915.6055297851565	242.1333312988282	382.0805053710938	-997.4748535156252	240.4102630615235	294.9452209472657	-953.7745361328127	367.9943237304688	451.3009338378907	-1003.982604980469	367.6677856445313	464.6773986816407	-956.534362792969	374.2587585449219	435.595672607422	-902.404724121094	-232.6398620605469	675.1411743164064	-1179.698852539063	
1092	5.455	-256.0494995117188	1577.599609375	-1008.553405761719	-386.6852416992189	1493.729614257813	-1105.737548828125	-373.6391906738282	1497.646850585938	-954.134704589844	-421.0605468750001	1373.986083984375	-1027.119873046875	-460.7344970703126	1062.717529296875	-1042.085083007813	-290.2789916992188	1298.265380859375	-1032.714477539063	-352.8399658203126	1315.112182617188	-1208.8994140625	-335.2351379394532	1116.961669921875	-1279.0517578125	-297.2957153320313	1095.323486328125	-1255.022094726563	-321.5112915039063	1050.449584960938	-1290.447143554688	-325.8624572753907	992.5192871093752	-1295.505126953125	-359.3099365234376	970.8424072265627	-1223.2919921875	-166.1755828857422	809.9690551757815	-1230.56640625	-186.4603729248047	791.441101074219	-1290.340942382813	-112.8542633056641	739.3038940429689	-1232.753295898438	-343.1213989257813	1297.851928710938	-863.4114379882815	-333.7833862304688	1095.575927734375	-793.725769042969	-287.6401977539063	1082.117309570313	-803.5955200195315	-314.7767028808594	1027.725341796875	-794.1457519531252	-292.1060485839844	972.4136352539065	-796.3738403320315	-314.1734924316407	957.711120605469	-872.5162353515627	-196.6730957031251	748.6182250976564	-825.1868286132815	-226.6455230712891	752.3151855468751	-765.7118530273439	-169.296142578125	674.3639526367189	-800.8819580078127	-306.0238952636719	882.595397949219	-1140.786499023438	-308.2637939453126	903.788757324219	-926.5788574218752	-473.8941345214845	950.9876098632815	-1036.409790039063	-479.6879882812501	920.189147949219	-1063.37841796875	-484.7385253906251	922.6257934570315	-1006.492248535156	-335.6723022460938	718.3410034179689	-1199.332885742188	-277.5507202148438	655.9641723632814	-1192.042602539063	-286.1745605468751	597.9099731445314	-1176.997802734375	-225.1725311279297	454.5181274414064	-1141.834594726563	-207.2677307128907	467.3594970703126	-1027.097412109375	-229.6464080810547	320.5755310058594	-1048.131103515625	-263.2762451171876	263.4227905273438	-1108.69873046875	-238.007064819336	265.6157836914063	-1067.559326171875	-283.9598693847657	207.3686981201172	-1027.526733398438	-376.2491455078126	106.2368240356446	-1071.689453125	-352.4429931640626	120.9536666870117	-989.5498657226565	-440.937469482422	96.349723815918	-1024.2900390625	-239.0261535644532	50.92315673828126	-1002.766296386719	-233.2082214355469	49.23611068725587	-1041.784790039063	-256.8504638671876	43.84297561645509	-1091.907836914063	-221.7032623291016	719.6371459960939	-859.9661865234377	-157.8603668212891	720.6309814453126	-871.8393554687502	-144.1804656982422	749.8171386718751	-885.4793701171877	-107.9913177490235	655.3691406250001	-888.9526977539065	-61.35643386840822	620.2980346679689	-897.9216918945315	-54.55158996582033	631.1174316406251	-1014.2646484375	70.9518508911133	574.1956176757814	-924.9846801757815	97.74839019775393	472.346160888672	-896.555114746094	125.1406173706055	507.2725830078126	-911.5866699218752	167.5240631103516	490.2051696777345	-947.3951416015627	253.3450469970704	358.5497131347657	-915.6662597656252	242.5892791748047	382.2278137207032	-997.1023559570315	240.6025695800782	295.1341857910157	-953.623229980469	368.4808044433594	451.2635803222657	-1004.270141601563	367.9434509277344	464.8050842285157	-956.782409667969	374.5792236328126	435.6282348632814	-902.541687011719	-232.8269348144532	675.5216064453126	-1180.610107421875	
1093	5.46	-255.9424591064454	1578.45458984375	-1008.403259277344	-386.4915466308595	1494.708374023438	-1105.7197265625	-373.6825866699219	1498.500732421875	-954.189147949219	-420.983856201172	1374.72412109375	-1027.261108398438	-460.2256164550782	1063.310180664063	-1042.059814453125	-289.9280700683594	1299.133544921875	-1032.801147460938	-352.8838806152344	1316.032470703125	-1209.245483398438	-336.8154602050782	1117.271118164063	-1278.817626953125	-299.2147216796876	1095.447143554688	-1254.882690429688	-323.8121948242188	1050.58984375	-1289.892333984375	-328.7159729003907	992.6252441406252	-1294.60546875	-361.9990539550782	971.7154541015627	-1222.074829101563	-171.3875732421875	808.0037841796877	-1230.73486328125	-192.8909149169922	789.729919433594	-1290.071533203125	-118.6056060791016	736.6346435546876	-1233.14990234375	-342.9426269531251	1298.694580078125	-863.2232666015627	-335.1669616699219	1096.326416015625	-793.4963989257815	-289.0960388183594	1082.263793945313	-803.4072265625002	-316.7088623046876	1028.310180664063	-793.7547607421877	-294.5558471679688	972.7998657226565	-796.1050415039065	-316.9625854492188	957.9734497070315	-872.5172119140627	-202.2789916992188	747.7084960937501	-824.0715332031252	-232.1822357177735	751.9987182617189	-764.7297363281251	-176.1759338378907	672.8566894531251	-800.147888183594	-305.5138549804688	883.2944946289065	-1140.925903320313	-307.2362976074219	904.6685791015627	-926.5135498046877	-473.3607788085939	951.8677978515627	-1036.403930664063	-477.4442749023439	920.6601562500002	-1063.724243164063	-483.9438476562501	923.4395751953127	-1006.476928710938	-336.0757141113282	719.0703125000001	-1198.490966796875	-277.7925720214844	656.6126098632814	-1192.712524414063	-286.5838928222657	598.4142456054689	-1177.539794921875	-226.1554870605469	454.8523254394532	-1142.5107421875	-207.2954864501954	467.6303100585939	-1027.771606445313	-230.4213256835938	320.4265747070313	-1049.027221679688	-263.7776489257813	263.3842773437501	-1109.098510742188	-238.3857727050782	265.8888549804688	-1068.16259765625	-284.0874633789063	207.5229797363282	-1027.933837890625	-376.3596801757813	106.2424621582032	-1071.7763671875	-352.3416442871094	121.004135131836	-989.676940917969	-440.9405517578126	96.402458190918	-1024.27294921875	-239.0679321289063	50.9125442504883	-1002.890014648438	-233.3346405029297	49.27922439575197	-1041.914306640625	-256.6998291015626	43.76647567749024	-1091.940673828125	-220.9795379638672	720.2531738281251	-859.9544067382815	-157.2198181152344	721.2295532226564	-871.8689575195315	-143.4845428466797	750.2164916992189	-885.4940185546877	-107.4172286987305	655.9479980468751	-889.0754394531252	-60.799373626709	620.7794799804689	-898.000671386719	-53.73884201049806	631.6613769531251	-1014.172485351563	71.33679962158205	574.5646362304689	-924.9041137695315	98.08535003662112	472.5307006835939	-896.5803222656252	125.5574111938477	507.5114746093751	-911.690124511719	167.8896636962891	490.398162841797	-947.4229125976565	253.5407714843751	358.6158752441407	-915.6346435546877	242.7249145507813	382.3068847656251	-996.9543457031252	240.6668090820313	295.1485900878907	-953.6350097656252	368.4123535156251	451.1944580078126	-1004.239379882813	368.3097229003907	465.0357360839845	-957.0627441406252	374.9026794433594	435.6001586914064	-902.6802368164065	-233.2380371093751	676.1080322265626	-1181.576293945313	
